HIERARCHY
ROOT Hips
{
  OFFSET 90.7885 88.945 -76.2838
  CHANNELS 6 Xposition Yposition Zposition Zrotation Xrotation Yrotation
  JOINT LeftUpLeg
  {
    OFFSET 8.64259 1.95398 -2.38835
    CHANNELS 3 Zrotation Xrotation Yrotation
    JOINT LeftLeg
    {
      OFFSET 43.7702 0 0
      CHANNELS 3 Zrotation Xrotation Yrotation
      JOINT LeftFoot
      {
        OFFSET 40.6238 0 0
        CHANNELS 3 Zrotation Xrotation Yrotation
        JOINT LeftToeBase
        {
          OFFSET 12.7242 0 0
          CHANNELS 3 Zrotation Xrotation Yrotation
          End Site
          {
            OFFSET 0 0 0
          }
        }
      }
    }
  }
  JOINT RightUpLeg
  {
    OFFSET -8.2249 1.95398 -2.59336
    CHANNELS 3 Zrotation Xrotation Yrotation
    JOINT RightLeg
    {
      OFFSET 43.5653 0 0
      CHANNELS 3 Zrotation Xrotation Yrotation
      JOINT RightFoot
      {
        OFFSET 40.6238 0 0
        CHANNELS 3 Zrotation Xrotation Yrotation
        JOINT RightToeBase
        {
          OFFSET 12.7242 0 0
          CHANNELS 3 Zrotation Xrotation Yrotation
          End Site
          {
            OFFSET 0 0 0
          }
        }
      }
    }
  }
  JOINT Spine
  {
    OFFSET 0.165834 0.87714 6.61349
    CHANNELS 3 Zrotation Xrotation Yrotation
    JOINT Spine1
    {
      OFFSET 7.38963 1.71661e-005 0
      CHANNELS 3 Zrotation Xrotation Yrotation
      JOINT Spine2
      {
        OFFSET 11.9445 1.14441e-005 0
        CHANNELS 3 Zrotation Xrotation Yrotation
        JOINT Spine3
        {
          OFFSET 14.7254 4.19617e-005 0
          CHANNELS 3 Zrotation Xrotation Yrotation
          JOINT Spine4
          {
            OFFSET 10.9679 0 0
            CHANNELS 3 Zrotation Xrotation Yrotation
            JOINT RightShoulder
            {
              OFFSET 2.46616 -1.6653 3.69651
              CHANNELS 3 Zrotation Xrotation Yrotation
              JOINT RightArm
              {
                OFFSET 13.0012 0 0
                CHANNELS 3 Zrotation Xrotation Yrotation
                JOINT RightForeArm
                {
                  OFFSET 28.7848 1.52588e-005 0
                  CHANNELS 3 Zrotation Xrotation Yrotation
                  JOINT RightHand
                  {
                    OFFSET 26.5688 1.52588e-005 0
                    CHANNELS 3 Zrotation Xrotation Yrotation
                    End Site
                    {
                      OFFSET 0 0 0
                    }
                  }
                }
              }
            }
            JOINT LeftShoulder
            {
              OFFSET 2.38034 -1.29275 -3.7523
              CHANNELS 3 Zrotation Xrotation Yrotation
              JOINT LeftArm
              {
                OFFSET 16.3182 6.10352e-005 0
                CHANNELS 3 Zrotation Xrotation Yrotation
                JOINT LeftForeArm
                {
                  OFFSET 27.0901 0 0
                  CHANNELS 3 Zrotation Xrotation Yrotation
                  JOINT LeftHand
                  {
                    OFFSET 24.5451 1.52588e-005 0
                    CHANNELS 3 Zrotation Xrotation Yrotation
                    End Site
                    {
                      OFFSET 0 0 0
                    }
                  }
                }
              }
            }
            JOINT Neck
            {
              OFFSET 5.0226 -0.0266342 0
              CHANNELS 3 Zrotation Xrotation Yrotation
              JOINT Head
              {
                OFFSET 6.69363 2.86102e-005 0
                CHANNELS 3 Zrotation Xrotation Yrotation
                End Site
                {
                  OFFSET 0 0 0
                }
              }
            }
          }
        }
      }
    }
  }
}
MOTION
Frames:	15
Frame Time:	0.0416667
-311.846 82.9323 -290.356 -109.197 60.0751 -75.0529 -166.207 -31.7908 95.0811 163.271 -65.4515 -166.799 169.165 -31.43 -66.9128 -11.4125 -24.7825 23.2881 -163.778 35.6791 89.8039 -72.2469 -24.2369 -9.63101 77.7648 -10.3227 -3.21826 19.0429 -0.503122 2.88891 3.41989 12.82 -91.3604 1.27828 6.30875 -2.44843 -10.3802 6.19491 -2.72454 -33.0373 6.75171 -0.431169 -13.0247 6.75173 -0.431173 99.8514 15.3098 -101.888 52.7734 41.9776 -4.32636 -36.1794 -21.8424 -90.209 -25.8667 0.520122 -19.6411 -95.2601 -33.2935 64.94 -40.5076 4.58639 -69.271 61.5425 1.27553 -86.7189 -8.59472 0.618399 -17.3569 29.7767 1.62907 23.1846 21.7341 -8.82689 -6.06291 
-307.442 83.9462 -285.875 -108.642 57.9608 -76.5596 -165.313 -16.7443 96.4332 -64.1131 -69.5717 -15.9893 157.44 -17.1745 -51.9418 -18.9192 -15.7658 15.5618 -165.5 36.6349 88.739 -65.96 -25.5618 -9.68359 70.2572 -6.45402 -2.32423 18.9099 -0.697113 3.26465 2.26534 12.8775 -90.6562 1.13124 4.2723 -1.13249 -10.5334 4.21831 -1.31972 -33.1243 4.4147 0.206282 -13.1116 4.41471 0.206279 99.4897 10.63 -98.7764 61.3904 34.2699 -2.82823 -38.856 -21.0663 -95.0033 -25.2049 1.03693 -23.9049 -90.0885 -28.521 72.6484 -38.9996 -2.12727 -77.0606 57.2208 -6.1677 -93.2253 -5.94319 0.422414 -19.4435 37.6646 5.02775 18.4381 17.2331 -5.07897 -8.07097 
-302.594 85.3335 -280.084 -110.327 53.9808 -75.6572 -166.319 -7.84801 94.3024 -62.8502 6.33086 -1.72363 125.379 27.0221 -6.58366 -17.7336 3.96885 2.61235 -169.588 35.5929 88.9216 -57.0858 -28.1966 -10.4185 58.8152 -0.326492 -1.16664 18.7013 -1.41055 4.63771 0.827738 12.9129 -89.8199 1.04307 1.7199 0.41027 -10.6268 1.73628 0.334145 -33.1688 1.5171 0.908337 -13.1562 1.5171 0.90834 98.899 0.933775 -96.6427 63.4268 23.1457 -1.26125 -39.7419 -14.4963 -99.4209 -22.6982 1.34043 -27.6648 -83.412 -17.2836 83.5945 -34.2025 -10.4881 -78.7656 49.5412 -8.60868 -97.9096 -1.6144 -0.177143 -14.9041 48.0917 6.13082 5.7628 6.31779 1.99468 -6.41812 
-297.964 90.1703 -274.303 -111.768 50.0477 -72.6319 -167.981 -6.5274 94.3005 -62.0022 18.9453 0.458323 94.395 19.9662 14.6369 6.3106 6.85702 -3.36848 -175.872 25.8768 89.9999 -34.8405 -38.0599 -9.63356 53.6423 2.34503 1.74117 15.3775 -0.568073 3.53297 0.204502 12.5601 -89.6095 1.75028 0.558681 0.772488 -9.92075 0.592132 0.747134 -32.4544 0.300701 0.904672 -12.4418 0.300696 0.904663 97.3571 -11.1887 -96.5239 56.3233 20.3158 3.67367 -33.2822 -10.464 -99.8813 -18.6854 1.36053 -29.0456 -80.8806 -5.67388 87.0671 -25.2316 -10.6593 -69.4543 50.3264 -10.2632 -97.7949 -2.21874 -0.103706 -14.3391 50.157 2.45653 -7.26056 -4.28493 6.48826 -0.525477 
-292.22 93.2149 -268.253 -107.934 46.8883 -72.1984 -170.249 0.62565 97.0941 -58.6101 10.5313 1.32933 73.7777 6.56516 3.74032 25.1294 2.0879 -2.2339 -175.683 23.9198 90.9849 -33.7178 -34.8086 -9.53715 59.8933 -0.808692 -0.806779 6.2389 -0.546419 4.50541 0.0751769 11.6154 -89.9784 3.64312 0.158792 0.0423721 -8.02781 0.16049 0.0353401 -30.563 0.138705 0.0881326 -10.5504 0.138715 0.0881461 95.089 -23.0523 -98.3444 45.5235 21.3645 4.9968 -34.7106 -10.2217 -102.647 -25.7116 2.30318 -27.2388 -81.4528 -4.55525 85.1999 -11.3816 -1.68784 -56.0049 46.1046 -13.0186 -96.1517 -2.46353 -0.0834698 -13.2266 46.79 0.00182944 -14.7395 -9.61359 7.90016 4.4103 
-285.412 91.0715 -260.754 -106.896 45.4514 -72.6248 -170.872 6.2898 96.7562 -59.2332 14.2337 1.62007 78.6109 9.4328 7.08935 41.0219 -0.434433 -1.88253 -176.217 27.3991 89.3703 -55.4165 -18.0173 -6.87318 68.913 -4.9167 -1.6444 13.2368 -0.93694 4.39459 -0.162987 10.9837 -89.6628 4.90642 -0.187318 0.667576 -6.76469 -0.157751 0.675159 -29.2988 -0.379299 0.580415 -9.28616 -0.379285 0.580416 88.0606 -37.6084 -107.637 28.6741 26.1823 0.285846 -35.7106 -10.1538 -106.355 -30.0901 2.10217 -23.3277 -82.6302 -7.12214 82.2699 -10.6357 12.247 -36.2749 41.7238 -14.0537 -93.0257 -0.433429 -0.262687 -14.8122 44.5587 -2.8812 -24.1835 -12.8779 9.49002 9.59091 
-278.116 88.4987 -252.468 -106.879 44.861 -72.9857 -171.643 16.0474 95.8667 -65.4251 10.8179 1.73815 81.4716 9.92065 2.50265 38.184 1.2778 -4.22666 -177.395 26.7167 87.0586 -77.9455 -10.2366 -4.34317 72.0229 -6.62743 -2.96069 14.1803 -0.922752 4.28057 0.282944 10.2747 -89.9135 6.3236 0.601817 0.151582 -5.34718 0.607923 0.124935 -27.8833 0.528418 0.32544 -7.87066 0.528442 0.325453 91.0087 -42.7164 -100.971 18.666 23.3655 -7.37464 -36.0789 -5.70237 -109.842 -28.8192 1.19287 -19.6182 -85.0869 -19.5286 80.1032 -13.3476 22.5826 -22.8778 38.583 -8.16685 -84.1742 -1.5834 -0.146259 -13.9223 40.8521 -3.56055 -21.2853 -13.3198 6.46654 9.42552 
-272.082 86.8711 -244.595 -106.651 45.4204 -76.1662 -172.47 23.7369 89.6838 -66.8323 8.89037 0.689874 81.3162 10.0957 4.21133 28.0452 1.16798 -1.57603 -178.522 18.6781 83.0589 -89.8916 -6.67692 -3.88411 71.257 -6.51794 -3.43746 9.52213 -1.59962 5.7859 0.931301 9.47076 -89.8462 7.93194 1.92646 0.191467 -3.73757 1.93303 0.106443 -26.2831 1.77985 0.76181 -6.27048 1.77987 0.761811 95.747 -36.5229 -93.9575 15.5721 23.6375 -10.8392 -36.3414 -1.47594 -114.018 -25.8943 0.909317 -20.2951 -87.0581 -31.4255 79.3407 -23.1577 22.4653 3.7573 42.9168 -13.5518 -89.0538 -7.16259 0.517399 -18.471 34.3464 -4.54097 -16.8289 -11.731 2.46536 7.58972 
-266.855 88.5541 -238.116 -112.42 45.2366 -72.378 -173.62 21.9767 88.683 -59.3168 7.94032 0.0265272 74.4858 7.28472 5.67903 23.5309 2.36444 -2.26134 178.751 -1.23103 82.7002 -82.7748 -16.3701 -5.80514 67.6425 -4.58415 -2.77427 13.4954 -1.59538 5.48303 2.14529 8.8564 -90.3546 9.18213 4.11997 -0.997211 -2.48282 4.0721 -1.17785 -25.0705 4.22886 0.289338 -5.05788 4.22888 0.289344 98.3544 -19.9687 -91.4125 15.9726 16.6484 -4.45174 -35.3464 2.39614 -118.53 -23.0992 0.750443 -20.2096 -86.957 -41.2556 81.7189 -26.1298 28.0403 27.8403 34.9959 -22.8005 -100.641 -6.76964 0.527164 -20.3545 19.8075 -6.28329 -9.25761 -7.36164 -3.28576 1.86378 
-260.733 92.2421 -230.918 -116.504 45.5325 -70.1887 -175.59 16.6608 88.7227 -40.4829 9.62151 -0.898344 59.9189 0.794558 4.29048 18.9122 2.38867 -1.3279 177.279 -16.6393 85.72 -65.8207 -25.2635 -9.18041 68.5723 -4.65289 -1.24707 17.3496 -2.48491 6.75007 2.65153 8.41968 -90.1848 10.0623 5.19983 -0.804439 -1.59857 5.15939 -1.03312 -24.217 5.20054 0.799899 -4.20436 5.20056 0.799898 96.6103 -11.3665 -98.1707 19.7921 5.50143 -0.987483 -40.5317 8.64562 -114.639 -19.8765 0.0607157 -19.0295 -83.0481 -38.4624 87.9195 -30.2416 21.6117 42.9986 36.3031 -29.4192 -110.815 -6.52762 0.566881 -22.5865 4.60267 -6.79745 -13.6514 -2.94908 -4.26853 1.61377 
-252.061 94.8324 -222.403 -110.214 45.7001 -76.8431 -177.56 17.8325 88.9413 -19.8213 19.8162 -1.48847 50.1974 -3.47039 -2.24226 17.8001 -2.87676 4.62743 176.137 -15.3494 88.5527 -52.7141 -24.6317 -7.60445 71.26 -5.90602 -1.00129 19.5109 -2.65539 6.91646 2.39255 7.70574 -89.5555 11.4659 4.96791 0.375773 -0.195415 4.97965 0.156195 -22.7992 4.62474 1.8546 -2.78656 4.62473 1.85459 95.1308 -11.5909 -102.448 24.0905 -9.85452 0.402368 -41.0337 11.6222 -108.4 -20.5479 0.559573 -20.0324 -83.4764 -38.0107 87.1368 -27.4897 12.9112 44.5116 36.0772 -28.1409 -113.351 -4.07222 0.190296 -23.1161 -1.34171 -6.34888 -17.5824 -2.56868 -3.99294 2.50338 
-241.787 93.7674 -212.771 -101.916 42.1322 -82.5233 -177.169 31.6501 90.1428 -35.4039 26.6434 -0.37058 61.4714 0.971383 2.33924 20.7009 -2.51242 4.27081 176.552 0.251576 90.7523 -51.0202 -14.2355 -3.61089 72.2736 -6.46565 -3.68601 26.7205 -4.66921 11.0423 1.58314 7.47557 -89.493 11.919 3.38712 0.6487 0.252367 3.41237 0.498825 -22.3111 3.0355 1.6375 -2.29843 3.03549 1.6375 92.8283 -18.3772 -105.385 28.5878 -16.8146 7.53182 -42.775 13.6242 -105.362 -21.0762 0.760039 -20.7452 -86.2238 -47.3987 83.9803 -16.0448 12.5049 27.7351 34.087 -24.3324 -111.304 -1.75123 -0.156402 -18.389 9.6569 -6.70314 -11.3364 -8.73653 -4.04446 -0.664274 
-232.702 91.0151 -203.074 -105.726 38.8188 -83.2582 -172.958 35.4675 88.7936 -64.4056 14.3405 0.310276 76.7043 7.35379 -0.0659122 16.9743 -0.77919 2.78271 175.847 3.00806 90.1502 -56.6074 -11.7243 -3.95777 82.6961 -12.1769 -5.82271 27.7574 -2.96619 7.08101 0.714182 8.22721 -89.4275 10.4117 1.6851 0.989513 -1.25845 1.727 0.914377 -23.7964 1.30985 1.45021 -3.78376 1.30982 1.45021 93.7222 -20.5022 -102.353 39.8693 -22.1114 14.3238 -44.5023 8.94469 -94.9846 -26.5148 0.71189 -17.5677 -89.6357 -53.3456 79.9487 -6.21746 13.1988 2.17138 32.5223 -23.0007 -110.283 -0.696535 -0.286314 -17.6958 19.4297 -3.71804 -2.62885 -13.4573 -2.45493 -3.37263 
-223.814 88.392 -193.815 -106.826 40.5874 -84.3154 -167.014 33.7146 91.1546 -86.3911 9.51242 2.4882 76.9997 7.80447 3.36793 18.8881 1.43613 -0.232844 178.012 12.4936 87.5626 -61.6103 -10.0955 -5.33029 92.5527 -16.3659 -1.21892 18.0476 -1.70916 5.23506 -0.037812 8.17763 -89.162 10.5146 0.309551 1.63901 -1.1573 0.381367 1.62379 -23.6846 -0.197308 1.65625 -3.67193 -0.197285 1.65625 94.2313 -22.1497 -100.57 50.1602 -18.7416 24.5013 -43.8474 1.09892 -83.5136 -28.5999 0.259933 -15.5029 -88.3824 -53.978 81.8836 0.76366 5.78543 -24.5736 28.9529 -21.8418 -113.565 -0.219754 -0.332329 -17.2384 17.5341 0.422574 -2.87818 -11.1509 1.42827 -2.2958 
-216.235 88.7192 -186.021 -107.449 41.5385 -82.86 -167.408 21.3594 98.3955 -92.4079 14.3322 5.20308 70.0407 5.23552 5.55381 21.0151 4.6447 -4.56066 179.288 21.4266 88.8938 -62.3191 -14.1806 -4.96867 81.6112 -12.0232 -5.4789 14.5078 -2.07259 6.22977 -1.05925 8.14839 -89.205 10.5859 -1.74441 1.73561 -1.08527 -1.66638 1.81068 -23.6235 -2.18528 1.1311 -3.61085 -2.1853 1.1311 96.0186 -19.8502 -97.1213 58.7591 -14.7793 38.2487 -49.7196 -0.239363 -82.6851 -20.1918 0.222614 -22.2587 -87.5134 -46.1107 81.6629 -6.02277 -6.43973 -39.3647 26.4021 -19.2003 -118.279 -1.8659 -0.156406 -20.2246 19.3211 5.48118 -3.77682 -11.0543 6.52924 -0.666144 
